%TF.GenerationSoftware,KiCad,Pcbnew,(5.1.12)-1*%
%TF.CreationDate,2021-12-12T18:13:40-05:00*%
%TF.ProjectId,asterisk60platetop,61737465-7269-4736-9b36-30706c617465,rev?*%
%TF.SameCoordinates,Original*%
%TF.FileFunction,Legend,Top*%
%TF.FilePolarity,Positive*%
%FSLAX46Y46*%
G04 Gerber Fmt 4.6, Leading zero omitted, Abs format (unit mm)*
G04 Created by KiCad (PCBNEW (5.1.12)-1) date 2021-12-12 18:13:40*
%MOMM*%
%LPD*%
G01*
G04 APERTURE LIST*
%ADD10C,0.250000*%
%ADD11C,0.125000*%
%ADD12C,0.000244*%
G04 APERTURE END LIST*
D10*
X248974330Y-123364761D02*
X248914806Y-123840952D01*
X248462425Y-123650476D02*
X248914806Y-123840952D01*
X249414806Y-123650476D01*
X248581473Y-124221904D02*
X248914806Y-123840952D01*
X249152901Y-124221904D01*
X251069568Y-123364761D02*
X250688616Y-123364761D01*
X250486235Y-123460000D01*
X250379092Y-123555238D01*
X250152901Y-123840952D01*
X250010044Y-124221904D01*
X249914806Y-124983809D01*
X249986235Y-125174285D01*
X250069568Y-125269523D01*
X250248139Y-125364761D01*
X250629092Y-125364761D01*
X250831473Y-125269523D01*
X250938616Y-125174285D01*
X251057663Y-124983809D01*
X251117187Y-124507619D01*
X251045758Y-124317142D01*
X250962425Y-124221904D01*
X250783854Y-124126666D01*
X250402901Y-124126666D01*
X250200520Y-124221904D01*
X250093377Y-124317142D01*
X249974330Y-124507619D01*
X252498139Y-123364761D02*
X252688616Y-123364761D01*
X252867187Y-123460000D01*
X252950520Y-123555238D01*
X253021949Y-123745714D01*
X253069568Y-124126666D01*
X253010044Y-124602857D01*
X252867187Y-124983809D01*
X252748139Y-125174285D01*
X252640997Y-125269523D01*
X252438616Y-125364761D01*
X252248139Y-125364761D01*
X252069568Y-125269523D01*
X251986235Y-125174285D01*
X251914806Y-124983809D01*
X251867187Y-124602857D01*
X251926711Y-124126666D01*
X252069568Y-123745714D01*
X252188616Y-123555238D01*
X252295758Y-123460000D01*
X252498139Y-123364761D01*
D11*
%TO.C,REF\u002A\u002A*%
X247650000Y-121285000D02*
X246136946Y-122118070D01*
X244922943Y-123150507D02*
X246136946Y-122118070D01*
X246571282Y-126105412D02*
X246521440Y-126105412D01*
X245000148Y-125834842D02*
X245892270Y-124942358D01*
X246200212Y-122083237D02*
X247165823Y-123705886D01*
X245652769Y-121103434D02*
X247650000Y-121285000D01*
X247650000Y-121285000D02*
X246651385Y-122453713D01*
X247165823Y-123705886D02*
X245796258Y-124764875D01*
D12*
X245892270Y-124942358D02*
X245977169Y-125099298D01*
D11*
X245000148Y-123293225D02*
X247165823Y-123705886D01*
X244922943Y-125834842D02*
X245000148Y-125834842D01*
X246349273Y-122001165D02*
X247568117Y-123826931D01*
X243128639Y-125503750D02*
X244922943Y-125834842D01*
X246136946Y-122118070D02*
X245652769Y-121103434D01*
X247568117Y-123826931D02*
X247753244Y-125920285D01*
X244922943Y-125834842D02*
X245114650Y-123504886D01*
X245977169Y-125099298D02*
X245000148Y-125834842D01*
X247753244Y-125920285D02*
X246834397Y-125043497D01*
X245652769Y-121103434D02*
X244922943Y-123150507D01*
X246521440Y-126105412D02*
X244922943Y-123150507D01*
X247165823Y-123705886D02*
X246571282Y-126105412D01*
X245114650Y-123504886D02*
X243128639Y-125503750D01*
%TD*%
M02*
