%TF.GenerationSoftware,KiCad,Pcbnew,(5.1.12)-1*%
%TF.CreationDate,2021-12-12T18:13:40-05:00*%
%TF.ProjectId,asterisk60platetop,61737465-7269-4736-9b36-30706c617465,rev?*%
%TF.SameCoordinates,Original*%
%TF.FileFunction,Profile,NP*%
%FSLAX46Y46*%
G04 Gerber Fmt 4.6, Leading zero omitted, Abs format (unit mm)*
G04 Created by KiCad (PCBNEW (5.1.12)-1) date 2021-12-12 18:13:40*
%MOMM*%
%LPD*%
G01*
G04 APERTURE LIST*
%TA.AperFunction,Profile*%
%ADD10C,0.100000*%
%TD*%
G04 APERTURE END LIST*
D10*
X28575000Y-21590000D02*
X28575000Y-23495000D01*
X42545000Y-23495000D02*
X42545000Y-21590000D01*
X43815000Y-20320000D02*
X257810000Y-20320000D01*
X22860000Y-20320000D02*
X27305000Y-20320000D01*
X41275000Y-24765000D02*
X29845000Y-24765000D01*
X29845000Y-24765000D02*
G75*
G02*
X28575000Y-23495000I0J1270000D01*
G01*
X27305000Y-20320000D02*
G75*
G02*
X28575000Y-21590000I0J-1270000D01*
G01*
X42545000Y-21590000D02*
G75*
G02*
X43815000Y-20320000I1270000J0D01*
G01*
X42545000Y-23495000D02*
G75*
G02*
X41275000Y-24765000I-1270000J0D01*
G01*
X20320000Y-22860000D02*
X20320000Y-124460000D01*
X260350000Y-124460000D02*
X260350000Y-22860000D01*
X260350000Y-124460000D02*
G75*
G02*
X257810000Y-127000000I-2540000J0D01*
G01*
X22860000Y-127000000D02*
X257810000Y-127000000D01*
X22860000Y-127000000D02*
G75*
G02*
X20320000Y-124460000I0J2540000D01*
G01*
X20320000Y-22860000D02*
G75*
G02*
X22860000Y-20320000I2540000J0D01*
G01*
X257810000Y-20320000D02*
G75*
G02*
X260350000Y-22860000I0J-2540000D01*
G01*
X238125000Y-118745000D02*
X238125000Y-104775000D01*
X61595000Y-104775000D02*
X61595000Y-118745000D01*
X28575000Y-104775000D02*
X28575000Y-118745000D01*
X200025000Y-118745000D02*
X200025000Y-104775000D01*
X194945000Y-104775000D02*
X194945000Y-118745000D01*
X213995000Y-118745000D02*
X200025000Y-118745000D01*
X137795000Y-118745000D02*
X123825000Y-118745000D01*
X80645000Y-104775000D02*
X80645000Y-118745000D01*
X61595000Y-118745000D02*
X47625000Y-118745000D01*
X161925000Y-104775000D02*
X175895000Y-104775000D01*
X123825000Y-118745000D02*
X123825000Y-104775000D01*
X42545000Y-118745000D02*
X42545000Y-104775000D01*
X175895000Y-118745000D02*
X161925000Y-118745000D01*
X156845000Y-118745000D02*
X142875000Y-118745000D01*
X85725000Y-118745000D02*
X85725000Y-104775000D01*
X238125000Y-104775000D02*
X252095000Y-104775000D01*
X118745000Y-104775000D02*
X118745000Y-118745000D01*
X118745000Y-118745000D02*
X104775000Y-118745000D01*
X66675000Y-118745000D02*
X66675000Y-104775000D01*
X99695000Y-104775000D02*
X99695000Y-118745000D01*
X200025000Y-104775000D02*
X213995000Y-104775000D01*
X233045000Y-104775000D02*
X233045000Y-118745000D01*
X219075000Y-104775000D02*
X233045000Y-104775000D01*
X137795000Y-104775000D02*
X137795000Y-118745000D01*
X80645000Y-118745000D02*
X66675000Y-118745000D01*
X42545000Y-104775000D02*
X28575000Y-104775000D01*
X194945000Y-118745000D02*
X180975000Y-118745000D01*
X252095000Y-104775000D02*
X252095000Y-118745000D01*
X156845000Y-104775000D02*
X156845000Y-118745000D01*
X180975000Y-118745000D02*
X180975000Y-104775000D01*
X175895000Y-104775000D02*
X175895000Y-118745000D01*
X123825000Y-104775000D02*
X137795000Y-104775000D01*
X252095000Y-118745000D02*
X238125000Y-118745000D01*
X219075000Y-118745000D02*
X219075000Y-104775000D01*
X161925000Y-118745000D02*
X161925000Y-104775000D01*
X104775000Y-104775000D02*
X118745000Y-104775000D01*
X28575000Y-118745000D02*
X42545000Y-118745000D01*
X104775000Y-118745000D02*
X104775000Y-104775000D01*
X47625000Y-104775000D02*
X61595000Y-104775000D01*
X99695000Y-118745000D02*
X85725000Y-118745000D01*
X142875000Y-104775000D02*
X156845000Y-104775000D01*
X233045000Y-118745000D02*
X219075000Y-118745000D01*
X213995000Y-104775000D02*
X213995000Y-118745000D01*
X85725000Y-104775000D02*
X99695000Y-104775000D01*
X47625000Y-118745000D02*
X47625000Y-104775000D01*
X142875000Y-118745000D02*
X142875000Y-104775000D01*
X180975000Y-104775000D02*
X194945000Y-104775000D01*
X66675000Y-104775000D02*
X80645000Y-104775000D01*
X238125000Y-99695000D02*
X238125000Y-85725000D01*
X61595000Y-85725000D02*
X61595000Y-99695000D01*
X28575000Y-85725000D02*
X28575000Y-99695000D01*
X200025000Y-99695000D02*
X200025000Y-85725000D01*
X194945000Y-85725000D02*
X194945000Y-99695000D01*
X213995000Y-99695000D02*
X200025000Y-99695000D01*
X137795000Y-99695000D02*
X123825000Y-99695000D01*
X80645000Y-85725000D02*
X80645000Y-99695000D01*
X61595000Y-99695000D02*
X47625000Y-99695000D01*
X161925000Y-85725000D02*
X175895000Y-85725000D01*
X123825000Y-99695000D02*
X123825000Y-85725000D01*
X42545000Y-99695000D02*
X42545000Y-85725000D01*
X175895000Y-99695000D02*
X161925000Y-99695000D01*
X156845000Y-99695000D02*
X142875000Y-99695000D01*
X85725000Y-99695000D02*
X85725000Y-85725000D01*
X238125000Y-85725000D02*
X252095000Y-85725000D01*
X118745000Y-85725000D02*
X118745000Y-99695000D01*
X118745000Y-99695000D02*
X104775000Y-99695000D01*
X66675000Y-99695000D02*
X66675000Y-85725000D01*
X99695000Y-85725000D02*
X99695000Y-99695000D01*
X200025000Y-85725000D02*
X213995000Y-85725000D01*
X233045000Y-85725000D02*
X233045000Y-99695000D01*
X219075000Y-85725000D02*
X233045000Y-85725000D01*
X137795000Y-85725000D02*
X137795000Y-99695000D01*
X80645000Y-99695000D02*
X66675000Y-99695000D01*
X42545000Y-85725000D02*
X28575000Y-85725000D01*
X194945000Y-99695000D02*
X180975000Y-99695000D01*
X252095000Y-85725000D02*
X252095000Y-99695000D01*
X156845000Y-85725000D02*
X156845000Y-99695000D01*
X180975000Y-99695000D02*
X180975000Y-85725000D01*
X175895000Y-85725000D02*
X175895000Y-99695000D01*
X123825000Y-85725000D02*
X137795000Y-85725000D01*
X252095000Y-99695000D02*
X238125000Y-99695000D01*
X219075000Y-99695000D02*
X219075000Y-85725000D01*
X161925000Y-99695000D02*
X161925000Y-85725000D01*
X104775000Y-85725000D02*
X118745000Y-85725000D01*
X28575000Y-99695000D02*
X42545000Y-99695000D01*
X104775000Y-99695000D02*
X104775000Y-85725000D01*
X47625000Y-85725000D02*
X61595000Y-85725000D01*
X99695000Y-99695000D02*
X85725000Y-99695000D01*
X142875000Y-85725000D02*
X156845000Y-85725000D01*
X233045000Y-99695000D02*
X219075000Y-99695000D01*
X213995000Y-85725000D02*
X213995000Y-99695000D01*
X85725000Y-85725000D02*
X99695000Y-85725000D01*
X47625000Y-99695000D02*
X47625000Y-85725000D01*
X142875000Y-99695000D02*
X142875000Y-85725000D01*
X180975000Y-85725000D02*
X194945000Y-85725000D01*
X66675000Y-85725000D02*
X80645000Y-85725000D01*
X238125000Y-80645000D02*
X238125000Y-66675000D01*
X61595000Y-66675000D02*
X61595000Y-80645000D01*
X28575000Y-66675000D02*
X28575000Y-80645000D01*
X200025000Y-80645000D02*
X200025000Y-66675000D01*
X194945000Y-66675000D02*
X194945000Y-80645000D01*
X213995000Y-80645000D02*
X200025000Y-80645000D01*
X137795000Y-80645000D02*
X123825000Y-80645000D01*
X80645000Y-66675000D02*
X80645000Y-80645000D01*
X61595000Y-80645000D02*
X47625000Y-80645000D01*
X161925000Y-66675000D02*
X175895000Y-66675000D01*
X123825000Y-80645000D02*
X123825000Y-66675000D01*
X42545000Y-80645000D02*
X42545000Y-66675000D01*
X175895000Y-80645000D02*
X161925000Y-80645000D01*
X156845000Y-80645000D02*
X142875000Y-80645000D01*
X85725000Y-80645000D02*
X85725000Y-66675000D01*
X238125000Y-66675000D02*
X252095000Y-66675000D01*
X118745000Y-66675000D02*
X118745000Y-80645000D01*
X118745000Y-80645000D02*
X104775000Y-80645000D01*
X66675000Y-80645000D02*
X66675000Y-66675000D01*
X99695000Y-66675000D02*
X99695000Y-80645000D01*
X200025000Y-66675000D02*
X213995000Y-66675000D01*
X233045000Y-66675000D02*
X233045000Y-80645000D01*
X219075000Y-66675000D02*
X233045000Y-66675000D01*
X137795000Y-66675000D02*
X137795000Y-80645000D01*
X80645000Y-80645000D02*
X66675000Y-80645000D01*
X42545000Y-66675000D02*
X28575000Y-66675000D01*
X194945000Y-80645000D02*
X180975000Y-80645000D01*
X252095000Y-66675000D02*
X252095000Y-80645000D01*
X156845000Y-66675000D02*
X156845000Y-80645000D01*
X180975000Y-80645000D02*
X180975000Y-66675000D01*
X175895000Y-66675000D02*
X175895000Y-80645000D01*
X123825000Y-66675000D02*
X137795000Y-66675000D01*
X252095000Y-80645000D02*
X238125000Y-80645000D01*
X219075000Y-80645000D02*
X219075000Y-66675000D01*
X161925000Y-80645000D02*
X161925000Y-66675000D01*
X104775000Y-66675000D02*
X118745000Y-66675000D01*
X28575000Y-80645000D02*
X42545000Y-80645000D01*
X104775000Y-80645000D02*
X104775000Y-66675000D01*
X47625000Y-66675000D02*
X61595000Y-66675000D01*
X99695000Y-80645000D02*
X85725000Y-80645000D01*
X142875000Y-66675000D02*
X156845000Y-66675000D01*
X233045000Y-80645000D02*
X219075000Y-80645000D01*
X213995000Y-66675000D02*
X213995000Y-80645000D01*
X85725000Y-66675000D02*
X99695000Y-66675000D01*
X47625000Y-80645000D02*
X47625000Y-66675000D01*
X142875000Y-80645000D02*
X142875000Y-66675000D01*
X180975000Y-66675000D02*
X194945000Y-66675000D01*
X66675000Y-66675000D02*
X80645000Y-66675000D01*
X238125000Y-61595000D02*
X238125000Y-47625000D01*
X61595000Y-47625000D02*
X61595000Y-61595000D01*
X28575000Y-47625000D02*
X28575000Y-61595000D01*
X200025000Y-61595000D02*
X200025000Y-47625000D01*
X194945000Y-47625000D02*
X194945000Y-61595000D01*
X213995000Y-61595000D02*
X200025000Y-61595000D01*
X137795000Y-61595000D02*
X123825000Y-61595000D01*
X80645000Y-47625000D02*
X80645000Y-61595000D01*
X61595000Y-61595000D02*
X47625000Y-61595000D01*
X161925000Y-47625000D02*
X175895000Y-47625000D01*
X123825000Y-61595000D02*
X123825000Y-47625000D01*
X42545000Y-61595000D02*
X42545000Y-47625000D01*
X175895000Y-61595000D02*
X161925000Y-61595000D01*
X156845000Y-61595000D02*
X142875000Y-61595000D01*
X85725000Y-61595000D02*
X85725000Y-47625000D01*
X238125000Y-47625000D02*
X252095000Y-47625000D01*
X118745000Y-47625000D02*
X118745000Y-61595000D01*
X118745000Y-61595000D02*
X104775000Y-61595000D01*
X66675000Y-61595000D02*
X66675000Y-47625000D01*
X99695000Y-47625000D02*
X99695000Y-61595000D01*
X200025000Y-47625000D02*
X213995000Y-47625000D01*
X233045000Y-47625000D02*
X233045000Y-61595000D01*
X219075000Y-47625000D02*
X233045000Y-47625000D01*
X137795000Y-47625000D02*
X137795000Y-61595000D01*
X80645000Y-61595000D02*
X66675000Y-61595000D01*
X42545000Y-47625000D02*
X28575000Y-47625000D01*
X194945000Y-61595000D02*
X180975000Y-61595000D01*
X252095000Y-47625000D02*
X252095000Y-61595000D01*
X156845000Y-47625000D02*
X156845000Y-61595000D01*
X180975000Y-61595000D02*
X180975000Y-47625000D01*
X175895000Y-47625000D02*
X175895000Y-61595000D01*
X123825000Y-47625000D02*
X137795000Y-47625000D01*
X252095000Y-61595000D02*
X238125000Y-61595000D01*
X219075000Y-61595000D02*
X219075000Y-47625000D01*
X161925000Y-61595000D02*
X161925000Y-47625000D01*
X104775000Y-47625000D02*
X118745000Y-47625000D01*
X28575000Y-61595000D02*
X42545000Y-61595000D01*
X104775000Y-61595000D02*
X104775000Y-47625000D01*
X47625000Y-47625000D02*
X61595000Y-47625000D01*
X99695000Y-61595000D02*
X85725000Y-61595000D01*
X142875000Y-47625000D02*
X156845000Y-47625000D01*
X233045000Y-61595000D02*
X219075000Y-61595000D01*
X213995000Y-47625000D02*
X213995000Y-61595000D01*
X85725000Y-47625000D02*
X99695000Y-47625000D01*
X47625000Y-61595000D02*
X47625000Y-47625000D01*
X142875000Y-61595000D02*
X142875000Y-47625000D01*
X180975000Y-47625000D02*
X194945000Y-47625000D01*
X66675000Y-47625000D02*
X80645000Y-47625000D01*
X252095000Y-28575000D02*
X252095000Y-42545000D01*
X252095000Y-42545000D02*
X238125000Y-42545000D01*
X238125000Y-28575000D02*
X252095000Y-28575000D01*
X238125000Y-42545000D02*
X238125000Y-28575000D01*
X233045000Y-28575000D02*
X233045000Y-42545000D01*
X233045000Y-42545000D02*
X219075000Y-42545000D01*
X219075000Y-28575000D02*
X233045000Y-28575000D01*
X219075000Y-42545000D02*
X219075000Y-28575000D01*
X213995000Y-28575000D02*
X213995000Y-42545000D01*
X213995000Y-42545000D02*
X200025000Y-42545000D01*
X200025000Y-28575000D02*
X213995000Y-28575000D01*
X200025000Y-42545000D02*
X200025000Y-28575000D01*
X194945000Y-28575000D02*
X194945000Y-42545000D01*
X194945000Y-42545000D02*
X180975000Y-42545000D01*
X180975000Y-28575000D02*
X194945000Y-28575000D01*
X180975000Y-42545000D02*
X180975000Y-28575000D01*
X175895000Y-28575000D02*
X175895000Y-42545000D01*
X175895000Y-42545000D02*
X161925000Y-42545000D01*
X161925000Y-28575000D02*
X175895000Y-28575000D01*
X161925000Y-42545000D02*
X161925000Y-28575000D01*
X156845000Y-28575000D02*
X156845000Y-42545000D01*
X156845000Y-42545000D02*
X142875000Y-42545000D01*
X142875000Y-28575000D02*
X156845000Y-28575000D01*
X142875000Y-42545000D02*
X142875000Y-28575000D01*
X137795000Y-28575000D02*
X137795000Y-42545000D01*
X137795000Y-42545000D02*
X123825000Y-42545000D01*
X123825000Y-28575000D02*
X137795000Y-28575000D01*
X123825000Y-42545000D02*
X123825000Y-28575000D01*
X118745000Y-28575000D02*
X118745000Y-42545000D01*
X118745000Y-42545000D02*
X104775000Y-42545000D01*
X104775000Y-28575000D02*
X118745000Y-28575000D01*
X104775000Y-42545000D02*
X104775000Y-28575000D01*
X99695000Y-28575000D02*
X99695000Y-42545000D01*
X99695000Y-42545000D02*
X85725000Y-42545000D01*
X85725000Y-28575000D02*
X99695000Y-28575000D01*
X85725000Y-42545000D02*
X85725000Y-28575000D01*
X80645000Y-28575000D02*
X80645000Y-42545000D01*
X80645000Y-42545000D02*
X66675000Y-42545000D01*
X66675000Y-28575000D02*
X80645000Y-28575000D01*
X66675000Y-42545000D02*
X66675000Y-28575000D01*
X47625000Y-42545000D02*
X47625000Y-28575000D01*
X61595000Y-42545000D02*
X47625000Y-42545000D01*
X61595000Y-28575000D02*
X61595000Y-42545000D01*
X47625000Y-28575000D02*
X61595000Y-28575000D01*
X42545000Y-28575000D02*
X28575000Y-28575000D01*
X42545000Y-42545000D02*
X42545000Y-28575000D01*
X28575000Y-42545000D02*
X42545000Y-42545000D01*
X28575000Y-28575000D02*
X28575000Y-42545000D01*
M02*
